# xmcd CD database file
#
# Track frame offsets:
#	150
#	17204
#	34006
#	58167
#	77198
#	99941
#	119763
#	142058
#	154419
#	173272
#	195817
#	216318
#	235240
#	255147
#	271458
#	287268
#	304902
#
# Disc length: 4354 seconds
#
# Revision: 0
# Processed by: cddbd v1.5.2PL0 Copyright (c) Steve Scherf et al.
# Submitted via: CDex 1.70beta2
#
DISCID=e7110011
DTITLE=Jokers Edition Sampler - Saxophone Ballads
DYEAR=1900
DGENRE=Jazz
TTITLE0=How Deep is Your Love
TTITLE1=Songbird
TTITLE2=I want to know what love is
TTITLE3=the lady in red
TTITLE4=sax me tonight
TTITLE5=lily was here
TTITLE6=the wind beneath my wing
TTITLE7=midnight at the oasis
TTITLE8=up where we belong
TTITLE9=forever in love
TTITLE10=i will always love you
TTITLE11=the greatest llove of all
TTITLE12=hjolding back to years
TTITLE13=local hero
TTITLE14=summer breeze
TTITLE15=on the beach
TTITLE16=just my imagination
EXTD=
EXTT0=
EXTT1=
EXTT2=
EXTT3=
EXTT4=
EXTT5=
EXTT6=
EXTT7=
EXTT8=
EXTT9=
EXTT10=
EXTT11=
EXTT12=
EXTT13=
EXTT14=
EXTT15=
EXTT16=
PLAYORDER=
